<?xml version="1.0" encoding="UTF-8" standalone="no"?>
<svg
   xmlns:dc="http://purl.org/dc/elements/1.1/"
   xmlns:cc="http://creativecommons.org/ns#"
   xmlns:rdf="http://www.w3.org/1999/02/22-rdf-syntax-ns#"
   xmlns:svg="http://www.w3.org/2000/svg"
   xmlns="http://www.w3.org/2000/svg"
   xmlns:sodipodi="http://sodipodi.sourceforge.net/DTD/sodipodi-0.dtd"
   xmlns:inkscape="http://www.inkscape.org/namespaces/inkscape"
   width="47.625004mm"
   height="14.111112mm"
   viewBox="0 0 47.625004 14.111112"
   version="1.1"
   id="svg8"
   sodipodi:docname="GooglePlayDownload.svg"
   inkscape:version="1.0.1 (3bc2e813f5, 2020-09-07)">
  <defs
     id="defs2">
    <clipPath
       clipPathUnits="userSpaceOnUse"
       id="clipPath859">
      <path
         d="m 205.098,176.105 -0.743,0.711 c -2.91,3.079 -4.628,7.86 -4.628,14.051 v -1.457 0 221.16 c 0,0.02 0,0.035 0,0.051 0,-0.019 0,-0.035 0,-0.055 v -1.461 c 0,6.704 2.003,11.754 5.359,14.782 L 328.984,299.992 205.098,176.105 m -5.371,234.528 c 0,0.551 0.015,1.086 0.043,1.613 -0.028,-0.523 -0.043,-1.062 -0.043,-1.613 m 0.043,1.637 c 0,0.007 0,0.015 0.003,0.023 -0.003,-0.008 -0.003,-0.016 -0.003,-0.023 m 0.003,0.07 c 0,0.004 0,0.008 0,0.012 0,-0.004 0,-0.008 0,-0.012"
         id="path857" />
    </clipPath>
    <linearGradient
       x1="0"
       y1="0"
       x2="1"
       y2="0"
       gradientUnits="userSpaceOnUse"
       gradientTransform="matrix(-5.9204934,5.9204934,5.9204934,5.9204934,-90.961307,74.636081)"
       spreadMethod="pad"
       id="linearGradient873">
      <stop
         style="stop-opacity:1;stop-color:#00a0ff"
         offset="0"
         id="stop861" />
      <stop
         style="stop-opacity:1;stop-color:#00a1ff"
         offset="0.00657445"
         id="stop863" />
      <stop
         style="stop-opacity:1;stop-color:#00beff"
         offset="0.2601"
         id="stop865" />
      <stop
         style="stop-opacity:1;stop-color:#00d2ff"
         offset="0.5122"
         id="stop867" />
      <stop
         style="stop-opacity:1;stop-color:#00dfff"
         offset="0.7604"
         id="stop869" />
      <stop
         style="stop-opacity:1;stop-color:#00e3ff"
         offset="1"
         id="stop871" />
    </linearGradient>
    <clipPath
       clipPathUnits="userSpaceOnUse"
       id="clipPath883">
      <path
         d="m 370.277,257.215 v 0 l 0.942,0.535 48.929,27.801 c 4.665,2.652 7.774,5.867 9.325,9.269 -1.547,-3.402 -4.657,-6.621 -9.325,-9.273 l -48.929,-27.801 -0.942,-0.531 m 0.012,1.465 -41.305,41.312 41.301,41.305 49.863,-28.328 c 6.332,-3.598 9.887,-8.235 10.481,-12.973 0,-0.004 0,-0.012 0,-0.019 -0.594,-4.727 -4.149,-9.368 -10.481,-12.965 L 370.289,258.68"
         id="path881" />
    </clipPath>
    <linearGradient
       x1="0"
       y1="0"
       x2="1"
       y2="0"
       gradientUnits="userSpaceOnUse"
       gradientTransform="matrix(-8.5361644,0,0,8.5361644,-86.715767,78.619542)"
       spreadMethod="pad"
       id="linearGradient893">
      <stop
         style="stop-opacity:1;stop-color:#ffe000"
         offset="0"
         id="stop885" />
      <stop
         style="stop-opacity:1;stop-color:#ffbd00"
         offset="0.4087"
         id="stop887" />
      <stop
         style="stop-opacity:1;stop-color:#ffa500"
         offset="0.7754"
         id="stop889" />
      <stop
         style="stop-opacity:1;stop-color:#ff9c00"
         offset="1"
         id="stop891" />
    </linearGradient>
    <clipPath
       clipPathUnits="userSpaceOnUse"
       id="clipPath903">
      <path
         d="m 213.93,171.387 c -3.461,0 -6.481,1.125 -8.836,3.25 l 0.004,0.004 c 2.355,-2.125 5.379,-3.254 8.84,-3.254 0.3,0 0.605,0.008 0.914,0.023 -0.313,-0.015 -0.622,-0.023 -0.922,-0.023 m 0.004,1.465 c -3.461,-0.004 -6.481,1.125 -8.836,3.25 v 0 0.003 l 123.886,123.887 41.305,-41.312 v 0 L 225.137,176.207 c -4.016,-2.277 -7.821,-3.355 -11.203,-3.355 m -8.871,1.812 c -0.219,0.199 -0.434,0.41 -0.645,0.629 l 0.645,-0.629"
         id="path901" />
    </clipPath>
    <linearGradient
       x1="0"
       y1="0"
       x2="1"
       y2="0"
       gradientUnits="userSpaceOnUse"
       gradientTransform="matrix(-8.028623,8.028623,8.028623,8.028623,-89.893378,79.429061)"
       spreadMethod="pad"
       id="linearGradient909">
      <stop
         style="stop-opacity:1;stop-color:#ff3a44"
         offset="0"
         id="stop905" />
      <stop
         style="stop-opacity:1;stop-color:#c31162"
         offset="1"
         id="stop907" />
    </linearGradient>
    <clipPath
       clipPathUnits="userSpaceOnUse"
       id="clipPath919">
      <path
         d="m 328.984,299.992 v 0 L 205.086,423.887 c 2.355,2.121 5.371,3.246 8.828,3.246 3.391,0 7.199,-1.082 11.223,-3.363 l 145.148,-82.473 -41.301,-41.305 m 42.235,42.238 -146.082,83 c -4.024,2.282 -7.832,3.364 -11.223,3.364 -0.016,0 -0.027,0 -0.043,0 0.02,0 0.035,0 0.059,0 3.383,0 7.187,-1.078 11.207,-3.36 L 371.219,342.23 M 213.84,428.594 v 0 0"
         id="path917" />
    </clipPath>
    <linearGradient
       x1="0"
       y1="0"
       x2="1"
       y2="0"
       gradientUnits="userSpaceOnUse"
       gradientTransform="matrix(3.5851044,3.5851044,3.5851044,-3.5851044,-96.077467,71.625651)"
       spreadMethod="pad"
       id="linearGradient931">
      <stop
         style="stop-opacity:1;stop-color:#32a071"
         offset="0"
         id="stop921" />
      <stop
         style="stop-opacity:1;stop-color:#2da771"
         offset="0.0685"
         id="stop923" />
      <stop
         style="stop-opacity:1;stop-color:#15cf74"
         offset="0.4762"
         id="stop925" />
      <stop
         style="stop-opacity:1;stop-color:#06e775"
         offset="0.8009"
         id="stop927" />
      <stop
         style="stop-opacity:1;stop-color:#00f076"
         offset="1"
         id="stop929" />
    </linearGradient>
    <clipPath
       clipPathUnits="userSpaceOnUse"
       id="clipPath943">
      <path
         d="m 370.277,257.215 v 0 l 0.942,0.535 -0.942,-0.535"
         id="path941" />
    </clipPath>
    <linearGradient
       x1="0"
       y1="0"
       x2="1"
       y2="0"
       gradientUnits="userSpaceOnUse"
       gradientTransform="matrix(-8.5361644,0,0,8.5361644,-86.715767,78.619542)"
       spreadMethod="pad"
       id="linearGradient953">
      <stop
         style="stop-opacity:1;stop-color:#ccb300"
         offset="0"
         id="stop945" />
      <stop
         style="stop-opacity:1;stop-color:#cc9700"
         offset="0.4087"
         id="stop947" />
      <stop
         style="stop-opacity:1;stop-color:#cc8400"
         offset="0.7754"
         id="stop949" />
      <stop
         style="stop-opacity:1;stop-color:#cc7d00"
         offset="1"
         id="stop951" />
    </linearGradient>
    <clipPath
       clipPathUnits="userSpaceOnUse"
       id="clipPath963">
      <path
         d="m 213.938,171.387 c -3.461,0 -6.485,1.129 -8.84,3.254 l -0.004,-0.004 c -0.008,0.008 -0.02,0.019 -0.031,0.027 l -0.645,0.629 c -0.02,0.02 -0.039,0.043 -0.063,0.066 l 0.743,0.743 c 2.355,-2.125 5.375,-3.254 8.836,-3.25 3.382,0 7.187,1.078 11.203,3.355 l 145.152,82.473 0.93,-0.93 -0.942,-0.535 -145.14,-82.469 c -3.66,-2.074 -7.141,-3.156 -10.285,-3.336 -0.309,-0.015 -0.614,-0.023 -0.914,-0.023"
         id="path961" />
    </clipPath>
    <linearGradient
       x1="0"
       y1="0"
       x2="1"
       y2="0"
       gradientUnits="userSpaceOnUse"
       gradientTransform="matrix(-8.028623,8.028623,8.028623,8.028623,-89.893378,79.429061)"
       spreadMethod="pad"
       id="linearGradient969">
      <stop
         style="stop-opacity:1;stop-color:#cc2e36"
         offset="0"
         id="stop965" />
      <stop
         style="stop-opacity:1;stop-color:#9c0e4e"
         offset="1"
         id="stop967" />
    </linearGradient>
    <clipPath
       clipPathUnits="userSpaceOnUse"
       id="clipPath981">
      <path
         d="m 204.355,175.359 v 0 c -2.91,3.079 -4.628,7.856 -4.628,14.051 v 1.457 c 0,-6.191 1.718,-10.972 4.628,-14.051 l 0.743,-0.711 -0.743,-0.746"
         id="path979" />
    </clipPath>
    <linearGradient
       x1="0"
       y1="0"
       x2="1"
       y2="0"
       gradientUnits="userSpaceOnUse"
       gradientTransform="matrix(-5.9204934,5.9204934,5.9204934,5.9204934,-90.961307,74.636081)"
       spreadMethod="pad"
       id="linearGradient995">
      <stop
         style="stop-opacity:1;stop-color:#008de0"
         offset="0"
         id="stop983" />
      <stop
         style="stop-opacity:1;stop-color:#008de0"
         offset="0.00657445"
         id="stop985" />
      <stop
         style="stop-opacity:1;stop-color:#00a7e0"
         offset="0.2601"
         id="stop987" />
      <stop
         style="stop-opacity:1;stop-color:#00b8e0"
         offset="0.5122"
         id="stop989" />
      <stop
         style="stop-opacity:1;stop-color:#00c4e0"
         offset="0.7604"
         id="stop991" />
      <stop
         style="stop-opacity:1;stop-color:#00c7e0"
         offset="1"
         id="stop993" />
    </linearGradient>
    <clipPath
       clipPathUnits="userSpaceOnUse"
       id="clipPath1005">
      <path
         d="m 204.355,175.359 v 0 0 l 0.743,0.746 v -0.003 l -0.743,-0.743"
         id="path1003" />
    </clipPath>
    <linearGradient
       x1="0"
       y1="0"
       x2="1"
       y2="0"
       gradientUnits="userSpaceOnUse"
       gradientTransform="matrix(-8.028623,8.028623,8.028623,8.028623,-89.893378,79.429061)"
       spreadMethod="pad"
       id="linearGradient1011">
      <stop
         style="stop-opacity:1;stop-color:#e0333c"
         offset="0"
         id="stop1007" />
      <stop
         style="stop-opacity:1;stop-color:#ab0f56"
         offset="1"
         id="stop1009" />
    </linearGradient>
    <clipPath
       clipPathUnits="userSpaceOnUse"
       id="clipPath1023">
      <path
         d="m 371.219,257.75 v 0 l -0.93,0.93 49.859,28.332 c 6.332,3.597 9.887,8.238 10.481,12.965 0,-1.735 -0.387,-3.469 -1.156,-5.157 -1.551,-3.402 -4.66,-6.617 -9.325,-9.269 L 371.219,257.75"
         id="path1021" />
    </clipPath>
    <linearGradient
       x1="0"
       y1="0"
       x2="1"
       y2="0"
       gradientUnits="userSpaceOnUse"
       gradientTransform="matrix(-8.5361644,0,0,8.5361644,-86.715767,78.619542)"
       spreadMethod="pad"
       id="linearGradient1033">
      <stop
         style="stop-opacity:1;stop-color:#e0c500"
         offset="0"
         id="stop1025" />
      <stop
         style="stop-opacity:1;stop-color:#e0a600"
         offset="0.4087"
         id="stop1027" />
      <stop
         style="stop-opacity:1;stop-color:#e09100"
         offset="0.7754"
         id="stop1029" />
      <stop
         style="stop-opacity:1;stop-color:#e08900"
         offset="1"
         id="stop1031" />
    </linearGradient>
    <clipPath
       clipPathUnits="userSpaceOnUse"
       id="clipPath1045">
      <path
         d="m 430.629,299.996 c -0.594,4.738 -4.149,9.375 -10.481,12.973 l -49.863,28.328 0.93,0.93 h 0.004 l 48.929,-27.801 c 6.981,-3.969 10.477,-9.199 10.481,-14.43"
         id="path1043" />
    </clipPath>
    <linearGradient
       x1="0"
       y1="0"
       x2="1"
       y2="0"
       gradientUnits="userSpaceOnUse"
       gradientTransform="matrix(-8.5361644,0,0,8.5361644,-86.715767,78.619542)"
       spreadMethod="pad"
       id="linearGradient1055">
      <stop
         style="stop-opacity:1;stop-color:#ffe840"
         offset="0"
         id="stop1047" />
      <stop
         style="stop-opacity:1;stop-color:#ffce40"
         offset="0.4087"
         id="stop1049" />
      <stop
         style="stop-opacity:1;stop-color:#ffbc40"
         offset="0.7754"
         id="stop1051" />
      <stop
         style="stop-opacity:1;stop-color:#ffb540"
         offset="1"
         id="stop1053" />
    </linearGradient>
    <clipPath
       clipPathUnits="userSpaceOnUse"
       id="clipPath1067">
      <path
         d="m 199.727,409.105 v 1.461 c 0,0.02 0,0.036 0,0.055 0,0.004 0,0.008 0,0.012 0,0.551 0.015,1.09 0.043,1.613 0,0.008 0,0.016 0,0.024 0,0.007 0,0.015 0.003,0.023 0,0.016 0,0.031 0,0.047 0,0.004 0,0.008 0,0.012 0.301,5.332 1.957,9.492 4.582,12.269 v 0 0 l 0.731,-0.734 c -3.356,-3.028 -5.359,-8.078 -5.359,-14.782 m 5.339,16.215 0.028,0.028 c -0.008,-0.012 -0.02,-0.02 -0.028,-0.028"
         id="path1065" />
    </clipPath>
    <linearGradient
       x1="0"
       y1="0"
       x2="1"
       y2="0"
       gradientUnits="userSpaceOnUse"
       gradientTransform="matrix(-5.9204934,5.9204934,5.9204934,5.9204934,-90.961307,74.636081)"
       spreadMethod="pad"
       id="linearGradient1081">
      <stop
         style="stop-opacity:1;stop-color:#40b8ff"
         offset="0"
         id="stop1069" />
      <stop
         style="stop-opacity:1;stop-color:#40b9ff"
         offset="0.00657445"
         id="stop1071" />
      <stop
         style="stop-opacity:1;stop-color:#40ceff"
         offset="0.2601"
         id="stop1073" />
      <stop
         style="stop-opacity:1;stop-color:#40ddff"
         offset="0.5122"
         id="stop1075" />
      <stop
         style="stop-opacity:1;stop-color:#40e7ff"
         offset="0.7604"
         id="stop1077" />
      <stop
         style="stop-opacity:1;stop-color:#40eaff"
         offset="1"
         id="stop1079" />
    </linearGradient>
    <clipPath
       clipPathUnits="userSpaceOnUse"
       id="clipPath1093">
      <path
         d="M 370.285,341.297 225.137,423.77 c -4.024,2.281 -7.832,3.363 -11.223,3.363 -3.457,0 -6.473,-1.125 -8.828,-3.246 l -0.731,0.734 v 0 c 0.231,0.242 0.465,0.477 0.711,0.699 0.008,0.008 0.02,0.016 0.028,0.024 2.336,2.105 5.32,3.23 8.746,3.25 v 0 c 0.008,0 0.019,0 0.031,0 0.016,0 0.027,0 0.043,0 3.391,0 7.199,-1.082 11.223,-3.364 l 146.082,-83 -0.004,-0.003 -0.93,-0.93"
         id="path1091" />
    </clipPath>
    <linearGradient
       x1="0"
       y1="0"
       x2="1"
       y2="0"
       gradientUnits="userSpaceOnUse"
       gradientTransform="matrix(3.5851044,3.5851044,3.5851044,-3.5851044,-96.077467,71.625651)"
       spreadMethod="pad"
       id="linearGradient1105">
      <stop
         style="stop-opacity:1;stop-color:#65b895"
         offset="0"
         id="stop1095" />
      <stop
         style="stop-opacity:1;stop-color:#62bd95"
         offset="0.0685"
         id="stop1097" />
      <stop
         style="stop-opacity:1;stop-color:#50db97"
         offset="0.4762"
         id="stop1099" />
      <stop
         style="stop-opacity:1;stop-color:#44ed98"
         offset="0.8009"
         id="stop1101" />
      <stop
         style="stop-opacity:1;stop-color:#40f498"
         offset="1"
         id="stop1103" />
    </linearGradient>
    <clipPath
       clipPathUnits="userSpaceOnUse"
       id="clipPath1533">
      <path
         d="m 205.098,176.105 -0.743,0.711 c -2.91,3.079 -4.628,7.86 -4.628,14.051 v -1.457 0 221.16 c 0,0.02 0,0.035 0,0.051 0,-0.019 0,-0.035 0,-0.055 v -1.461 c 0,6.704 2.003,11.754 5.359,14.782 L 328.984,299.992 205.098,176.105 m -5.371,234.528 c 0,0.551 0.015,1.086 0.043,1.613 -0.028,-0.523 -0.043,-1.062 -0.043,-1.613 m 0.043,1.637 c 0,0.007 0,0.015 0.003,0.023 -0.003,-0.008 -0.003,-0.016 -0.003,-0.023 m 0.003,0.07 c 0,0.004 0,0.008 0,0.012 0,-0.004 0,-0.008 0,-0.012"
         id="path1531" />
    </clipPath>
    <clipPath
       clipPathUnits="userSpaceOnUse"
       id="clipPath1557">
      <path
         d="m 370.277,257.215 v 0 l 0.942,0.535 48.929,27.801 c 4.665,2.652 7.774,5.867 9.325,9.269 -1.547,-3.402 -4.657,-6.621 -9.325,-9.273 l -48.929,-27.801 -0.942,-0.531 m 0.012,1.465 -41.305,41.312 41.301,41.305 49.863,-28.328 c 6.332,-3.598 9.887,-8.235 10.481,-12.973 0,-0.004 0,-0.012 0,-0.019 -0.594,-4.727 -4.149,-9.368 -10.481,-12.965 L 370.289,258.68"
         id="path1555" />
    </clipPath>
    <clipPath
       clipPathUnits="userSpaceOnUse"
       id="clipPath1577">
      <path
         d="m 213.93,171.387 c -3.461,0 -6.481,1.125 -8.836,3.25 l 0.004,0.004 c 2.355,-2.125 5.379,-3.254 8.84,-3.254 0.3,0 0.605,0.008 0.914,0.023 -0.313,-0.015 -0.622,-0.023 -0.922,-0.023 m 0.004,1.465 c -3.461,-0.004 -6.481,1.125 -8.836,3.25 v 0 0.003 l 123.886,123.887 41.305,-41.312 v 0 L 225.137,176.207 c -4.016,-2.277 -7.821,-3.355 -11.203,-3.355 m -8.871,1.812 c -0.219,0.199 -0.434,0.41 -0.645,0.629 l 0.645,-0.629"
         id="path1575" />
    </clipPath>
    <clipPath
       clipPathUnits="userSpaceOnUse"
       id="clipPath1593">
      <path
         d="m 328.984,299.992 v 0 L 205.086,423.887 c 2.355,2.121 5.371,3.246 8.828,3.246 3.391,0 7.199,-1.082 11.223,-3.363 l 145.148,-82.473 -41.301,-41.305 m 42.235,42.238 -146.082,83 c -4.024,2.282 -7.832,3.364 -11.223,3.364 -0.016,0 -0.027,0 -0.043,0 0.02,0 0.035,0 0.059,0 3.383,0 7.187,-1.078 11.207,-3.36 L 371.219,342.23 M 213.84,428.594 v 0 0"
         id="path1591" />
    </clipPath>
    <clipPath
       clipPathUnits="userSpaceOnUse"
       id="clipPath1617">
      <path
         d="m 370.277,257.215 v 0 l 0.942,0.535 -0.942,-0.535"
         id="path1615" />
    </clipPath>
    <clipPath
       clipPathUnits="userSpaceOnUse"
       id="clipPath1637">
      <path
         d="m 213.938,171.387 c -3.461,0 -6.485,1.129 -8.84,3.254 l -0.004,-0.004 c -0.008,0.008 -0.02,0.019 -0.031,0.027 l -0.645,0.629 c -0.02,0.02 -0.039,0.043 -0.063,0.066 l 0.743,0.743 c 2.355,-2.125 5.375,-3.254 8.836,-3.25 3.382,0 7.187,1.078 11.203,3.355 l 145.152,82.473 0.93,-0.93 -0.942,-0.535 -145.14,-82.469 c -3.66,-2.074 -7.141,-3.156 -10.285,-3.336 -0.309,-0.015 -0.614,-0.023 -0.914,-0.023"
         id="path1635" />
    </clipPath>
    <clipPath
       clipPathUnits="userSpaceOnUse"
       id="clipPath1655">
      <path
         d="m 204.355,175.359 v 0 c -2.91,3.079 -4.628,7.856 -4.628,14.051 v 1.457 c 0,-6.191 1.718,-10.972 4.628,-14.051 l 0.743,-0.711 -0.743,-0.746"
         id="path1653" />
    </clipPath>
    <clipPath
       clipPathUnits="userSpaceOnUse"
       id="clipPath1679">
      <path
         d="m 204.355,175.359 v 0 0 l 0.743,0.746 v -0.003 l -0.743,-0.743"
         id="path1677" />
    </clipPath>
    <clipPath
       clipPathUnits="userSpaceOnUse"
       id="clipPath1697">
      <path
         d="m 371.219,257.75 v 0 l -0.93,0.93 49.859,28.332 c 6.332,3.597 9.887,8.238 10.481,12.965 0,-1.735 -0.387,-3.469 -1.156,-5.157 -1.551,-3.402 -4.66,-6.617 -9.325,-9.269 L 371.219,257.75"
         id="path1695" />
    </clipPath>
    <clipPath
       clipPathUnits="userSpaceOnUse"
       id="clipPath1719">
      <path
         d="m 430.629,299.996 c -0.594,4.738 -4.149,9.375 -10.481,12.973 l -49.863,28.328 0.93,0.93 h 0.004 l 48.929,-27.801 c 6.981,-3.969 10.477,-9.199 10.481,-14.43"
         id="path1717" />
    </clipPath>
    <clipPath
       clipPathUnits="userSpaceOnUse"
       id="clipPath1741">
      <path
         d="m 199.727,409.105 v 1.461 c 0,0.02 0,0.036 0,0.055 0,0.004 0,0.008 0,0.012 0,0.551 0.015,1.09 0.043,1.613 0,0.008 0,0.016 0,0.024 0,0.007 0,0.015 0.003,0.023 0,0.016 0,0.031 0,0.047 0,0.004 0,0.008 0,0.012 0.301,5.332 1.957,9.492 4.582,12.269 v 0 0 l 0.731,-0.734 c -3.356,-3.028 -5.359,-8.078 -5.359,-14.782 m 5.339,16.215 0.028,0.028 c -0.008,-0.012 -0.02,-0.02 -0.028,-0.028"
         id="path1739" />
    </clipPath>
    <clipPath
       clipPathUnits="userSpaceOnUse"
       id="clipPath1767">
      <path
         d="M 370.285,341.297 225.137,423.77 c -4.024,2.281 -7.832,3.363 -11.223,3.363 -3.457,0 -6.473,-1.125 -8.828,-3.246 l -0.731,0.734 v 0 c 0.231,0.242 0.465,0.477 0.711,0.699 0.008,0.008 0.02,0.016 0.028,0.024 2.336,2.105 5.32,3.23 8.746,3.25 v 0 c 0.008,0 0.019,0 0.031,0 0.016,0 0.027,0 0.043,0 3.391,0 7.199,-1.082 11.223,-3.364 l 146.082,-83 -0.004,-0.003 -0.93,-0.93"
         id="path1765" />
    </clipPath>
  </defs>
  <sodipodi:namedview
     id="base"
     pagecolor="#ffffff"
     bordercolor="#666666"
     borderopacity="1.0"
     inkscape:pageopacity="0.0"
     inkscape:pageshadow="2"
     inkscape:zoom="3.959798"
     inkscape:cx="39.961616"
     inkscape:cy="0.60747639"
     inkscape:document-units="mm"
     inkscape:current-layer="layer1"
     inkscape:document-rotation="0"
     showgrid="false"
     inkscape:window-width="1920"
     inkscape:window-height="1017"
     inkscape:window-x="1912"
     inkscape:window-y="-8"
     inkscape:window-maximized="1" />
  <metadata
     id="metadata5">
    <rdf:RDF>
      <cc:Work
         rdf:about="">
        <dc:format>image/svg+xml</dc:format>
        <dc:type
           rdf:resource="http://purl.org/dc/dcmitype/StillImage" />
      </cc:Work>
    </rdf:RDF>
  </metadata>
  <g
     inkscape:label="Ebene 1"
     inkscape:groupmode="layer"
     id="layer1"
     transform="translate(98.651792,-71.563492)">
    <path
       d="m -52.790678,85.674604 h -44.097225 c -0.970139,0 -1.763889,-0.79375 -1.763889,-1.763889 V 73.327381 c 0,-0.970139 0.79375,-1.763889 1.763889,-1.763889 h 44.097225 c 0.970139,0 1.763889,0.79375 1.763889,1.763889 v 10.583334 c 0,0.970139 -0.79375,1.763889 -1.763889,1.763889"
       style="fill:#000000;fill-opacity:1;fill-rule:nonzero;stroke:none;stroke-width:0.0352778"
       id="path1521" />
    <path
       d="m -52.790678,71.563492 h -44.097225 c -0.970139,0 -1.763889,0.79375 -1.763889,1.763889 v 10.583334 c 0,0.970139 0.79375,1.763889 1.763889,1.763889 h 44.097225 c 0.970139,0 1.763889,-0.79375 1.763889,-1.763889 V 73.327381 c 0,-0.970139 -0.79375,-1.763889 -1.763889,-1.763889 m 0,0.282222 c 0.817033,0 1.481667,0.664775 1.481667,1.481667 v 10.583334 c 0,0.817033 -0.664634,1.481808 -1.481667,1.481808 h -44.097225 c -0.816892,0 -1.481667,-0.664775 -1.481667,-1.481808 V 73.327381 c 0,-0.816892 0.664775,-1.481667 1.481667,-1.481667 h 44.097225"
       style="fill:#a6a6a6;fill-opacity:1;fill-rule:nonzero;stroke:none;stroke-width:0.0352778"
       id="path1523" />
    <path
       d="m -60.927145,82.146826 h 0.658283 V 77.73668 h -0.658283 z m 5.929136,-2.821517 -0.754591,1.912021 h -0.02258 l -0.783167,-1.912021 h -0.709083 l 1.174397,2.672398 -0.669572,1.4865 h 0.686858 l 1.80975,-4.158898 z m -3.733094,2.320608 c -0.2159,0 -0.516467,-0.107774 -0.516467,-0.374544 0,-0.340396 0.37465,-0.470888 0.697794,-0.470888 0.289631,0 0.42545,0.06241 0.601487,0.147602 -0.05115,0.408446 -0.402873,0.69783 -0.782814,0.69783 z m 0.07937,-2.417093 c -0.476603,0 -0.970139,0.210009 -1.174398,0.675252 l 0.5842,0.243911 c 0.124884,-0.243911 0.357364,-0.323427 0.601487,-0.323427 0.34043,0 0.686505,0.204364 0.69215,0.567479 v 0.04533 c -0.119239,-0.06809 -0.374298,-0.17018 -0.686506,-0.17018 -0.629708,0 -1.271058,0.346004 -1.271058,0.992857 0,0.590092 0.516466,0.970281 1.095022,0.970281 0.442736,0 0.686505,-0.198579 0.839964,-0.431166 h 0.02258 v 0.34036 h 0.635352 V 80.44866 c 0,-0.78285 -0.5842,-1.219836 -1.338791,-1.219836 z m -4.068234,0.633342 h -0.936272 v -1.511688 h 0.936272 c 0.492125,0 0.771525,0.407459 0.771525,0.755827 0,0.341771 -0.2794,0.755861 -0.771525,0.755861 z m -0.01693,-2.125486 h -1.57727 v 4.410146 h 0.657931 v -1.670861 h 0.919339 c 0.729544,0 1.446741,-0.528215 1.446741,-1.36966 0,-0.841411 -0.717197,-1.369625 -1.446741,-1.369625 z m -8.601076,3.910048 c -0.454766,0 -0.835519,-0.380753 -0.835519,-0.903711 0,-0.528461 0.380753,-0.914999 0.835519,-0.914999 0.44898,0 0.801335,0.386538 0.801335,0.914999 0,0.522958 -0.352355,0.903711 -0.801335,0.903711 z m 0.755862,-2.074474 h -0.02275 c -0.147708,-0.176142 -0.432012,-0.33528 -0.790011,-0.33528 -0.750217,0 -1.437852,0.659235 -1.437852,1.506043 0,0.841164 0.687635,1.494755 1.437852,1.494755 0.357999,0 0.642303,-0.159173 0.790011,-0.340924 h 0.02275 v 0.215935 c 0,0.574111 -0.306882,0.880992 -0.801335,0.880992 -0.403507,0 -0.653591,-0.289948 -0.756003,-0.534282 l -0.573934,0.238689 c 0.164818,0.397828 0.602474,0.886637 1.329937,0.886637 0.772936,0 1.426528,-0.454766 1.426528,-1.562982 V 79.32792 h -0.625193 z m 1.079817,2.574572 h 0.659272 v -4.410287 h -0.659272 z M -67.87112,80.6919 c -0.01707,-0.579755 0.448981,-0.875207 0.784261,-0.875207 0.26162,0 0.483164,0.130634 0.556895,0.318347 z m 2.046006,-0.500098 c -0.124883,-0.335421 -0.505884,-0.954828 -1.284499,-0.954828 -0.772937,0 -1.415098,0.608118 -1.415098,1.500399 0,0.841163 0.636517,1.500399 1.488969,1.500399 0.687811,0 1.085745,-0.420582 1.250492,-0.664915 l -0.511528,-0.341066 c -0.170392,0.250119 -0.403578,0.414937 -0.738964,0.414937 -0.33528,0 -0.573934,-0.153493 -0.727463,-0.454625 l 2.006177,-0.829839 z m -15.983727,-0.494453 v 0.636517 h 1.523118 c -0.04547,0.358034 -0.164818,0.619442 -0.34671,0.801334 -0.22158,0.221721 -0.56829,0.466055 -1.176408,0.466055 -0.937789,0 -1.670897,-0.755862 -1.670897,-1.693616 0,-0.937753 0.733108,-1.693721 1.670897,-1.693721 0.505848,0 0.875171,0.198967 1.148009,0.454731 l 0.448981,-0.448945 c -0.380754,-0.36382 -0.886637,-0.642303 -1.59699,-0.642303 -1.2845,0 -2.364317,1.045775 -2.364317,2.330238 0,1.284464 1.079817,2.330133 2.364317,2.330133 0.69342,0 1.216236,-0.227224 1.625388,-0.653591 0.420582,-0.420582 0.551357,-1.011626 0.551357,-1.48897 0,-0.147884 -0.01132,-0.284162 -0.03419,-0.397862 z m 3.90839,1.949379 c -0.454766,0 -0.846949,-0.375108 -0.846949,-0.909355 0,-0.539927 0.392183,-0.909355 0.846949,-0.909355 0.454589,0 0.846772,0.369428 0.846772,0.909355 0,0.534247 -0.392183,0.909355 -0.846772,0.909355 z m 0,-2.409754 c -0.829875,0 -1.50622,0.630837 -1.50622,1.500399 0,0.863882 0.676345,1.500399 1.50622,1.500399 0.829698,0 1.506043,-0.636517 1.506043,-1.500399 0,-0.869562 -0.676345,-1.500399 -1.506043,-1.500399 z m 3.28549,2.409754 c -0.45459,0 -0.846808,-0.375108 -0.846808,-0.909355 0,-0.539927 0.392218,-0.909355 0.846808,-0.909355 0.454625,0 0.846808,0.369428 0.846808,0.909355 0,0.534247 -0.392183,0.909355 -0.846808,0.909355 z m 0,-2.409754 c -0.829839,0 -1.506044,0.630837 -1.506044,1.500399 0,0.863882 0.676205,1.500399 1.506044,1.500399 0.829733,0 1.506079,-0.636517 1.506079,-1.500399 0,-0.869562 -0.676346,-1.500399 -1.506079,-1.500399"
       style="fill:#ffffff;fill-opacity:1;fill-rule:nonzero;stroke:none;stroke-width:0.0352778"
       id="path1525" />
    <path
       d="m -94.944168,82.989789 -0.02621,-0.02508 c -0.102659,-0.10862 -0.163266,-0.277283 -0.163266,-0.495688 v 0.0514 0 -7.802034 c 0,-7.06e-4 0,-0.0012 0,-0.0018 0,6.7e-4 0,0.0012 0,0.0019 v 0.05154 c 0,-0.236502 0.07066,-0.414655 0.189054,-0.521476 l 4.370846,4.37074 -4.370423,4.370459 m -0.189477,-8.273628 c 0,-0.01944 5.29e-4,-0.03831 0.0015,-0.0569 -9.88e-4,0.01845 -0.0015,0.03747 -0.0015,0.0569 m 0.0015,-0.05775 c 0,-2.47e-4 0,-5.3e-4 1.06e-4,-8.12e-4 -1.06e-4,2.82e-4 -1.06e-4,5.65e-4 -1.06e-4,8.12e-4 m 1.06e-4,-0.0025 c 0,-1.41e-4 0,-2.82e-4 0,-4.23e-4 0,1.41e-4 0,2.82e-4 0,4.23e-4"
       style="fill:url(#linearGradient873);fill-opacity:1;fill-rule:nonzero;stroke:none;stroke-width:0.0352778"
       id="path1549" />
    <path
       d="m -89.117019,80.128408 v 0 l 0.03323,-0.01887 1.726107,-0.980757 c 0.164571,-0.09356 0.274249,-0.206975 0.328965,-0.32699 -0.05457,0.120015 -0.164289,0.233574 -0.328965,0.327131 l -1.726107,0.980757 -0.03323,0.01873 m 4.23e-4,-0.05168 -1.457149,-1.457396 1.457008,-1.457148 1.759056,0.999348 c 0.223379,0.12693 0.348791,0.290513 0.369746,0.457659 0,1.41e-4 0,4.23e-4 0,6.7e-4 -0.02096,0.166758 -0.146367,0.330483 -0.369746,0.457377 l -1.758915,0.99949"
       style="fill:url(#linearGradient893);fill-opacity:1;fill-rule:nonzero;stroke:none;stroke-width:0.0352778"
       id="path1569" />
    <path
       d="m -94.632595,83.156229 c -0.122096,0 -0.228635,-0.03969 -0.311714,-0.114653 l 1.41e-4,-1.41e-4 c 0.08308,0.07497 0.189759,0.114794 0.311856,0.114794 0.01058,0 0.02134,-2.82e-4 0.03224,-8.11e-4 -0.01104,5.29e-4 -0.02194,8.11e-4 -0.03253,8.11e-4 m 1.42e-4,-0.05168 c -0.122097,1.41e-4 -0.228636,-0.03969 -0.311715,-0.114653 v 0 -1.05e-4 l 4.370423,-4.370459 1.457149,1.457396 v 0 l -5.12064,2.909464 c -0.141676,0.08033 -0.275908,0.118357 -0.395217,0.118357 m -0.31295,-0.06392 c -0.0077,-0.007 -0.01531,-0.01446 -0.02275,-0.02219 l 0.02275,0.02219"
       style="fill:url(#linearGradient909);fill-opacity:1;fill-rule:nonzero;stroke:none;stroke-width:0.0352778"
       id="path1585" />
    <path
       d="m -90.573745,78.61933 v 0 l -4.370846,-4.37074 c 0.08308,-0.07482 0.189477,-0.114512 0.311432,-0.114512 0.119627,0 0.253965,0.03817 0.395923,0.118639 l 5.120499,2.909465 -1.457008,1.457148 m 1.489957,-1.490063 -5.153448,-2.928055 c -0.141958,-0.0805 -0.276296,-0.118675 -0.395923,-0.118675 -5.64e-4,0 -9.52e-4,0 -0.0015,0 7.06e-4,0 0.0012,0 0.0021,0 0.119345,0 0.253542,0.03803 0.395359,0.118533 l 5.153448,2.928197 m -5.551982,-3.04673 v 0 0"
       style="fill:url(#linearGradient931);fill-opacity:1;fill-rule:nonzero;stroke:none;stroke-width:0.0352778"
       id="path1607" />
    <path
       d="m -94.600068,83.155418 c 0.110913,-0.0063 0.233715,-0.04452 0.362832,-0.117687 l 5.120217,-2.909323 v 0 l -5.120217,2.909323 c -0.129011,0.07331 -0.251919,0.111337 -0.362832,0.117687 m -0.344241,-0.113842 -0.0011,-9.52e-4 c 3.88e-4,2.82e-4 8.12e-4,6.7e-4 0.0011,9.52e-4 v 0 m -0.02385,-0.02314 -0.0022,-0.0022 v -1.41e-4 c 8.46e-4,8.11e-4 0.0015,0.0016 0.0022,0.0023"
       style="fill:#000000;fill-opacity:1;fill-rule:nonzero;stroke:none;stroke-width:0.0352778"
       id="path1609" />
    <path
       d="m -89.117019,80.128408 v 0 l 0.03323,-0.01887 -0.03323,0.01887"
       style="fill:url(#linearGradient953);fill-opacity:1;fill-rule:nonzero;stroke:none;stroke-width:0.0352778"
       id="path1629" />
    <path
       d="m -94.632312,83.156229 c -0.122097,0 -0.228777,-0.03983 -0.311856,-0.114794 l -1.41e-4,1.41e-4 c -2.82e-4,-2.82e-4 -7.06e-4,-6.7e-4 -0.0011,-9.52e-4 l -0.02275,-0.02219 c -7.05e-4,-7.05e-4 -0.0014,-0.0015 -0.0022,-0.0023 l 0.02621,-0.02621 c 0.08308,0.07497 0.189618,0.114794 0.311715,0.114653 0.119309,0 0.253541,-0.03803 0.395217,-0.118357 l 5.12064,-2.909464 0.03281,0.03281 -0.03323,0.01887 -5.120217,2.909323 c -0.129117,0.07317 -0.251919,0.111337 -0.362832,0.117687 -0.0109,5.29e-4 -0.02166,8.11e-4 -0.03224,8.11e-4"
       style="fill:url(#linearGradient969);fill-opacity:1;fill-rule:nonzero;stroke:none;stroke-width:0.0352778"
       id="path1645" />
    <path
       d="m -94.970379,83.016247 c -0.102659,-0.10862 -0.163266,-0.277283 -0.163266,-0.495688 v -1.41e-4 c 0,0.218546 0.06061,0.387067 0.163266,0.495688 v 0 0 1.41e-4"
       style="fill:#000000;fill-opacity:1;fill-rule:nonzero;stroke:none;stroke-width:0.0352778"
       id="path1647" />
    <path
       d="m -94.970379,83.016106 v 0 c -0.102659,-0.108621 -0.163266,-0.277142 -0.163266,-0.495688 v -0.0514 c 0,0.218405 0.06061,0.387068 0.163266,0.495688 l 0.02621,0.02508 -0.02621,0.02632"
       style="fill:url(#linearGradient995);fill-opacity:1;fill-rule:nonzero;stroke:none;stroke-width:0.0352778"
       id="path1671" />
    <path
       d="m -94.970379,83.016106 v 0 0 l 0.02621,-0.02632 v 1.05e-4 l -0.02621,0.02621"
       style="fill:url(#linearGradient1011);fill-opacity:1;fill-rule:nonzero;stroke:none;stroke-width:0.0352778"
       id="path1687" />
    <path
       d="m -87.028716,78.801787 c 0.02713,-0.05955 0.04078,-0.120721 0.04078,-0.181928 0,-1.05e-4 0,-2.47e-4 0,-2.47e-4 0,0.06131 -0.01365,0.122485 -0.04078,0.182175"
       style="fill:#000000;fill-opacity:1;fill-rule:nonzero;stroke:none;stroke-width:0.0352778"
       id="path1689" />
    <path
       d="m -89.083788,80.109534 v 0 l -0.03281,-0.03281 1.758915,-0.99949 c 0.223379,-0.126894 0.348791,-0.290619 0.369746,-0.457377 0,0.06121 -0.01365,0.122379 -0.04078,0.181928 -0.05472,0.120015 -0.164394,0.233433 -0.328965,0.32699 l -1.726107,0.980757"
       style="fill:url(#linearGradient1033);fill-opacity:1;fill-rule:nonzero;stroke:none;stroke-width:0.0352778"
       id="path1709" />
    <path
       d="m -86.987935,78.61933 v -1.41e-4 c -1.41e-4,-0.184538 -0.123472,-0.369041 -0.369746,-0.509058 l -1.726107,-0.980758 h -1.41e-4 l 1.41e-4,-1.06e-4 1.726107,0.980723 c 0.246556,0.140017 0.370028,0.324802 0.369746,0.50934"
       style="fill:#404040;fill-opacity:1;fill-rule:nonzero;stroke:none;stroke-width:0.0352778"
       id="path1711" />
    <path
       d="m -86.987935,78.619189 c -0.02096,-0.167146 -0.146367,-0.330729 -0.369746,-0.457659 l -1.759056,-0.999348 0.03281,-0.03281 h 1.41e-4 l 1.726107,0.980758 c 0.246274,0.140017 0.369605,0.32452 0.369746,0.509058"
       style="fill:url(#linearGradient1055);fill-opacity:1;fill-rule:nonzero;stroke:none;stroke-width:0.0352778"
       id="path1731" />
    <path
       d="m -95.133645,74.716585 c 0,-1.41e-4 0,-2.83e-4 0,-4.24e-4 0,1.41e-4 0,2.83e-4 0,4.24e-4 m 0.0015,-0.05733 c 0,-2.82e-4 0,-5.64e-4 0,-8.46e-4 0,2.82e-4 0,5.64e-4 0,8.46e-4 m 1.06e-4,-0.0017 c 0,-5.64e-4 0,-0.0011 0,-0.0017 0,5.65e-4 0,0.0011 0,0.0017 m 0,-0.0021 c 0.02043,-0.362409 0.217487,-0.571747 0.496252,-0.572982 -0.120861,7.06e-4 -0.22613,0.04039 -0.308539,0.114653 v -1.41e-4 l -9.88e-4,9.88e-4 c -0.0087,0.0078 -0.01693,0.01612 -0.02508,0.02466 v 0 c -0.0926,0.09797 -0.151024,0.244722 -0.161643,0.432823"
       style="fill:#404040;fill-opacity:1;fill-rule:nonzero;stroke:none;stroke-width:0.0352778"
       id="path1733" />
    <path
       d="m -95.133645,74.770066 v -0.05154 c 0,-7.06e-4 0,-0.0013 0,-0.0019 0,-1.41e-4 0,-2.83e-4 0,-4.24e-4 0,-0.01944 5.29e-4,-0.03845 0.0015,-0.0569 0,-2.82e-4 0,-5.64e-4 0,-8.46e-4 0,-2.47e-4 0,-5.3e-4 1.06e-4,-8.12e-4 0,-5.64e-4 0,-0.0011 0,-0.0017 0,-1.41e-4 0,-2.82e-4 0,-4.23e-4 0.01062,-0.188101 0.06904,-0.334857 0.161643,-0.432823 v 0 0 l 0.02579,0.02589 c -0.118392,0.106821 -0.189054,0.284974 -0.189054,0.521476 m 0.188348,-0.572029 9.88e-4,-9.88e-4 c -2.82e-4,4.23e-4 -7.06e-4,7.05e-4 -9.88e-4,9.88e-4"
       style="fill:url(#linearGradient1081);fill-opacity:1;fill-rule:nonzero;stroke:none;stroke-width:0.0352778"
       id="path1757" />
    <path
       d="m -94.63577,74.082537 c 2.83e-4,0 6.71e-4,0 0.0011,0 -4.23e-4,0 -8.11e-4,0 -0.0011,0"
       style="fill:#404040;fill-opacity:1;fill-rule:nonzero;stroke:none;stroke-width:0.0352778"
       id="path1759" />
    <path
       d="m -89.116737,77.162182 -5.120499,-2.909465 c -0.141958,-0.08047 -0.276296,-0.118639 -0.395923,-0.118639 -0.121955,0 -0.228353,0.03969 -0.311432,0.114512 l -0.02579,-0.02589 v 0 c 0.0081,-0.0085 0.0164,-0.01683 0.02508,-0.02466 2.82e-4,-2.83e-4 7.06e-4,-5.65e-4 9.88e-4,-8.47e-4 0.08241,-0.07426 0.187678,-0.113947 0.308539,-0.114653 v 0 c 2.83e-4,0 6.71e-4,0 0.0011,0 5.65e-4,0 9.53e-4,0 0.0015,0 0.119627,0 0.253965,0.03817 0.395923,0.118675 l 5.153448,2.928055 -1.41e-4,1.06e-4 -0.03281,0.03281"
       style="fill:url(#linearGradient1105);fill-opacity:1;fill-rule:nonzero;stroke:none;stroke-width:0.0352778"
       id="path1781" />
    <path
       d="m -83.47836,76.196876 c -0.154058,0 -0.284974,-0.04272 -0.393418,-0.128588 -0.108162,-0.08569 -0.185349,-0.206269 -0.23054,-0.361985 l 0.248461,-0.103646 c 0.06297,0.222814 0.192229,0.334045 0.387209,0.334045 0.126118,0 0.223238,-0.04078 0.291042,-0.122661 0.06795,-0.08156 0.101988,-0.192652 0.101988,-0.332528 v -1.448576 h 0.272168 v 1.442684 c 0,0.230682 -0.06368,0.408447 -0.190853,0.533577 -0.127071,0.125236 -0.288996,0.187678 -0.486057,0.187678"
       style="fill:#ffffff;fill-opacity:1;fill-rule:nonzero;stroke:none;stroke-width:0.0352778"
       id="path1783" />
    <path
       d="m -83.47836,76.196876 v -0.03528 c -0.147567,-2.82e-4 -0.269381,-0.04039 -0.371652,-0.121003 h 1.41e-4 c -0.101846,-0.08075 -0.174871,-0.194028 -0.218545,-0.344241 l -0.0339,0.0099 0.01365,0.03249 0.24832,-0.10347 -0.01351,-0.03267 -0.0339,0.0097 c 0.06297,0.231775 0.210961,0.361703 0.421111,0.359657 0.133279,5.29e-4 0.243523,-0.04466 0.318206,-0.135326 0.0744,-0.08957 0.110243,-0.209726 0.110102,-0.355141 v -1.413299 h 0.201612 V 75.4756 c -1.41e-4,0.224473 -0.06131,0.391055 -0.180269,0.508494 -0.120686,0.118357 -0.271604,0.17706 -0.461363,0.177483 v 0.03528 0.03528 c 0.204364,2.83e-4 0.377331,-0.06586 0.510857,-0.197767 0.135326,-0.133103 0.201613,-0.322051 0.201331,-0.558765 v -1.477962 h -0.307446 -0.03528 v 1.483854 c 0,0.134514 -0.03253,0.23622 -0.09384,0.30995 -0.06092,0.07288 -0.145097,0.109397 -0.263913,0.109961 -0.179811,-0.0021 -0.290195,-0.09469 -0.353307,-0.308257 l -0.0109,-0.03831 -0.284974,0.118781 -0.02907,0.01214 0.0087,0.0303 c 0.04671,0.161219 0.127882,0.289101 0.242534,0.379906 v 0 c 0.114935,0.09098 0.254918,0.136314 0.415326,0.136172 v -0.03528"
       style="fill:#ffffff;fill-opacity:1;fill-rule:nonzero;stroke:none;stroke-width:0.0352778"
       id="path1785" />
    <path
       d="m -81.116407,74.292969 h -0.96393 v 0.671125 h 0.869139 v 0.254352 h -0.869139 v 0.671125 h 0.96393 v 0.260032 h -1.235816 v -2.116666 h 1.235816 v 0.260032"
       style="fill:#ffffff;fill-opacity:1;fill-rule:nonzero;stroke:none;stroke-width:0.0352778"
       id="path1787" />
    <path
       d="m -81.116407,74.292969 v -0.03528 h -0.999208 v 0.74168 h 0.869139 v 0.183692 l -0.869139,1.06e-4 v 0.74168 h 0.96393 v 0.189477 h -1.16526 v -2.046112 h 1.16526 v 0.224755 h 0.03528 v -0.03528 0.03528 h 0.03528 v -0.260032 -0.03528 h -1.306372 v 2.187222 h 1.306372 v -0.29531 -0.03528 h -0.96393 v -0.600569 h 0.869138 v -0.28963 -0.03528 h -0.869138 v -0.600569 h 0.96393 v -0.03528 h -0.03528"
       style="fill:#ffffff;fill-opacity:1;fill-rule:nonzero;stroke:none;stroke-width:0.0352778"
       id="path1789" />
    <path
       d="m -79.969597,76.149603 h -0.272168 v -1.856634 h -0.59115 v -0.260032 h 1.454503 v 0.260032 h -0.591185 v 1.856634"
       style="fill:#ffffff;fill-opacity:1;fill-rule:nonzero;stroke:none;stroke-width:0.0352778"
       id="path1791" />
    <path
       d="m -79.969597,76.149603 v -0.03528 h -0.23689 v -1.856635 h -0.59115 v -0.189477 h 1.383947 v 0.189477 h -0.591185 V 76.1496 h 0.03528 v -0.03528 0.03528 h 0.03528 v -1.821356 h 0.591185 v -0.29531 -0.03528 h -1.525059 v 0.29531 0.03528 h 0.59115 v 1.856634 h 0.307446 0.03528 v -0.03528 h -0.03528"
       style="fill:#ffffff;fill-opacity:1;fill-rule:nonzero;stroke:none;stroke-width:0.0352778"
       id="path1793" />
    <path
       d="m -79.153375,76.149603 v -0.28388 l 1.126137,-1.572754 h -1.079006 v -0.260032 h 1.395272 v 0.28388 l -1.126138,1.572754 h 1.138238 v 0.260032 h -1.454503"
       style="fill:#ffffff;fill-opacity:1;fill-rule:nonzero;stroke:none;stroke-width:0.0352778"
       id="path1795" />
    <path
       d="m -79.153375,76.149603 h 0.03528 v -0.272591 l 1.159475,-1.619321 h -1.112344 v -0.189477 h 1.324716 v 0.237314 l -1.15951,1.619321 h 1.17161 v 0.189477 h -1.419225 v 0.03528 h 0.03528 -0.03528 v 0.03528 h 1.489781 v -0.29531 -0.03528 h -1.1049 l 1.092799,-1.526187 V 74.03294 73.99766 h -1.465827 v 0.29531 0.03528 h 1.045669 l -1.0928,1.526187 v 0.295169 0.03528 h 0.03528 v -0.03528"
       style="fill:#ffffff;fill-opacity:1;fill-rule:nonzero;stroke:none;stroke-width:0.0352778"
       id="path1797" />
    <path
       d="m -76.587481,76.149603 h -0.272168 v -1.856634 h -0.59115 v -0.260032 h 1.454503 v 0.260032 h -0.591185 v 1.856634"
       style="fill:#ffffff;fill-opacity:1;fill-rule:nonzero;stroke:none;stroke-width:0.0352778"
       id="path1799" />
    <path
       d="m -76.587481,76.149603 v -0.03528 h -0.23689 v -1.856635 h -0.59115 v -0.189477 h 1.383947 v 0.189477 h -0.591185 V 76.1496 h 0.03528 v -0.03528 0.03528 h 0.03528 v -1.821356 h 0.591185 v -0.29531 -0.03528 h -1.525059 v 0.29531 0.03528 h 0.59115 v 1.856634 h 0.307446 0.03528 v -0.03528 h -0.03528"
       style="fill:#ffffff;fill-opacity:1;fill-rule:nonzero;stroke:none;stroke-width:0.0352778"
       id="path1801" />
    <path
       d="m -74.671721,75.889571 h 0.546947 c 0.104457,0 0.189053,-0.03651 0.254247,-0.109679 0.06519,-0.07264 0.09758,-0.152576 0.09758,-0.239395 0,-0.08668 -0.03351,-0.165911 -0.100753,-0.237843 -0.06671,-0.07193 -0.154623,-0.10802 -0.263208,-0.10802 h -0.534811 z m 0,-0.949184 h 0.493466 c 0.102658,0 0.185067,-0.03376 0.247085,-0.101988 0.06202,-0.06794 0.09303,-0.142205 0.09303,-0.223097 0,-0.08075 -0.03006,-0.154905 -0.09028,-0.22158 -0.05994,-0.06713 -0.139171,-0.100753 -0.237702,-0.100753 h -0.505601 z m -0.271745,1.209216 v -2.116666 h 0.765211 c 0.165805,0 0.309103,0.05486 0.430388,0.163971 0.12125,0.109573 0.181893,0.246944 0.181893,0.412468 0,0.100435 -0.02618,0.189194 -0.07856,0.2661 -0.05193,0.07687 -0.121532,0.135043 -0.20835,0.174448 v 0.01171 c 0.104316,0.03542 0.190182,0.09659 0.25728,0.183268 0.06682,0.08682 0.100577,0.187431 0.100577,0.30166 0,0.173355 -0.06364,0.317218 -0.190852,0.431483 -0.127036,0.11437 -0.277249,0.171555 -0.451027,0.171555 h -0.806556"
       style="fill:#ffffff;fill-opacity:1;fill-rule:nonzero;stroke:none;stroke-width:0.0352778"
       id="path1803" />
    <path
       d="m -74.671721,75.889571 v 0.03528 h 0.546947 c 0.11243,4.23e-4 0.209444,-0.04092 0.280564,-0.121426 v 0 c 0.06988,-0.07758 0.106645,-0.167147 0.106539,-0.262926 1.06e-4,-0.09588 -0.03806,-0.185067 -0.110137,-0.261937 v 0 c -0.07317,-0.07927 -0.172791,-0.119627 -0.289102,-0.119204 h -0.570089 v 0.765493 h 0.03528 v -0.03528 h 0.03528 v -0.659659 h 0.499533 c 0.100895,3.88e-4 0.176953,0.03239 0.237455,0.09673 v 0 c 0.06226,0.06724 0.09095,0.136561 0.09123,0.213854 -2.82e-4,0.07786 -0.02826,0.148167 -0.08862,0.215936 v 0 c -0.05912,0.06562 -0.131762,0.0973 -0.227929,0.09786 h -0.546947 v 0.03528 h 0.03528 z m 0,-0.949184 v 0.03528 h 0.493466 c 0.110243,3.88e-4 0.204787,-0.03764 0.27312,-0.113559 v 1.41e-4 c 0.06685,-0.07278 0.102553,-0.156845 0.10227,-0.246945 2.83e-4,-0.08957 -0.03418,-0.173355 -0.09934,-0.245286 l 1.06e-4,1.41e-4 c -0.06625,-0.07472 -0.157621,-0.112889 -0.264019,-0.112466 h -0.540879 v 0.717974 h 0.03528 v -0.03528 h 0.03528 v -0.61214 h 0.470323 c 0.09066,5.64e-4 0.157798,0.02949 0.211385,0.0889 l 1.41e-4,1.41e-4 c 0.05539,0.06174 0.08089,0.126224 0.08117,0.198014 -2.82e-4,0.07151 -0.0266,0.136278 -0.08379,0.199249 v 1.41e-4 c -0.05553,0.0605 -0.1258,0.08999 -0.22105,0.09042 h -0.493466 v 0.03528 h 0.03528 z m -0.271745,1.209216 h 0.03528 v -2.081389 h 0.729933 c 0.158079,2.83e-4 0.291182,0.05126 0.406823,0.154905 h -1.41e-4 c 0.11437,0.103893 0.169898,0.229447 0.170321,0.386257 -1.41e-4,0.0944 -0.02427,0.175295 -0.07236,0.246238 h -1.41e-4 c -0.04851,0.07169 -0.11243,0.125131 -0.193745,0.162208 l -0.02067,0.0094 v 0.03443 0.02522 l 0.02385,0.0081 c 0.09825,0.03366 0.177623,0.09014 0.240876,0.171591 l -1.41e-4,-1.41e-4 c 0.06216,0.08103 0.09317,0.172791 0.09327,0.280141 -3.89e-4,0.164818 -0.05895,0.296686 -0.179141,0.405306 -0.121391,0.108727 -0.26155,0.162172 -0.427461,0.162455 h -0.806556 v 0.03528 h 0.03528 -0.03528 v 0.03528 h 0.806556 c 0.181504,2.82e-4 0.341771,-0.06064 0.474592,-0.180657 0.134091,-0.119768 0.202988,-0.275626 0.202565,-0.457659 1.41e-4,-0.121109 -0.03637,-0.23054 -0.107879,-0.323144 l -1.41e-4,-1.42e-4 c -0.07112,-0.09176 -0.163301,-0.157656 -0.273827,-0.19498 l -0.01129,0.03334 h 0.03528 v -0.01171 h -0.03528 l 0.0146,0.0321 c 0.09218,-0.04173 0.167428,-0.104457 0.222955,-0.186866 l -1.41e-4,1.41e-4 c 0.05666,-0.0828 0.08491,-0.179423 0.08477,-0.285926 3.89e-4,-0.174061 -0.06533,-0.323427 -0.193498,-0.438644 l -8.12e-4,-6.71e-4 6.71e-4,6.71e-4 c -0.126894,-0.114794 -0.280423,-0.173355 -0.453919,-0.173073 h -0.800489 v 2.187222 h 0.03528 v -0.03528"
       style="fill:#ffffff;fill-opacity:1;fill-rule:nonzero;stroke:none;stroke-width:0.0352778"
       id="path1805" />
    <path
       d="m -71.893031,74.292969 h -0.963966 v 0.671125 h 0.869139 v 0.254352 h -0.869139 v 0.671125 h 0.963966 v 0.260032 h -1.235852 v -2.116666 h 1.235852 v 0.260032"
       style="fill:#ffffff;fill-opacity:1;fill-rule:nonzero;stroke:none;stroke-width:0.0352778"
       id="path1807" />
    <path
       d="m -71.893031,74.292969 v -0.03528 h -0.999244 v 0.74168 h 0.869139 v 0.183692 l -0.869139,1.06e-4 v 0.74168 h 0.963966 v 0.189477 h -1.165296 v -2.046112 h 1.165296 v 0.224755 h 0.03528 v -0.03528 0.03528 h 0.03528 v -0.260032 -0.03528 h -1.306406 v 2.187222 h 1.306406 v -0.29531 -0.03528 h -0.963965 v -0.600569 h 0.869139 v -0.28963 -0.03528 h -0.869139 v -0.600569 h 0.963965 v -0.03528 h -0.03528"
       style="fill:#ffffff;fill-opacity:1;fill-rule:nonzero;stroke:none;stroke-width:0.0352778"
       id="path1809" />
    <path
       d="m -71.467229,76.149603 v -2.116666 h 0.271886 v 2.116666 h -0.271886"
       style="fill:#ffffff;fill-opacity:1;fill-rule:nonzero;stroke:none;stroke-width:0.0352778"
       id="path1811" />
    <path
       d="m -71.467229,76.149603 h 0.03528 v -2.081389 h 0.20133 v 2.046112 h -0.236608 v 0.03528 h 0.03528 -0.03528 v 0.03528 h 0.271886 0.03528 v -2.187222 h -0.307164 -0.03528 v 2.187222 h 0.03528 v -0.03528"
       style="fill:#ffffff;fill-opacity:1;fill-rule:nonzero;stroke:none;stroke-width:0.0352778"
       id="path1813" />
  </g>
</svg>
