<?xml version="1.0" encoding="UTF-8" standalone="no"?>
<svg
   xmlns:dc="http://purl.org/dc/elements/1.1/"
   xmlns:cc="http://creativecommons.org/ns#"
   xmlns:rdf="http://www.w3.org/1999/02/22-rdf-syntax-ns#"
   xmlns:svg="http://www.w3.org/2000/svg"
   xmlns="http://www.w3.org/2000/svg"
   xmlns:xlink="http://www.w3.org/1999/xlink"
   xmlns:sodipodi="http://sodipodi.sourceforge.net/DTD/sodipodi-0.dtd"
   xmlns:inkscape="http://www.inkscape.org/namespaces/inkscape"
   width="21.820587mm"
   height="11.444271mm"
   viewBox="0 0 21.820587 11.444271"
   version="1.1"
   id="svg8"
   inkscape:version="1.0.1 (3bc2e813f5, 2020-09-07)"
   sodipodi:docname="Test.svg">
  <defs
     id="defs2">
    <linearGradient
       inkscape:collect="always"
       id="linearGradient4496-9">
      <stop
         style="stop-color:#99ffff;stop-opacity:1"
         offset="0"
         id="stop1046" />
      <stop
         style="stop-color:#ffffff;stop-opacity:1"
         offset="1"
         id="stop1048" />
    </linearGradient>
    <inkscape:path-effect
       effect="envelope"
       id="path-effect889"
       is_visible="true"
       lpeversion="1"
       yy="true"
       xx="false"
       bendpath1="M 73.197933,151.96269 H 99.264547"
       bendpath2="m 99.264547,151.96269 v 12.01204"
       bendpath3="M 73.197933,163.97473 H 99.264547"
       bendpath4="m 73.197933,151.96269 v 12.01204" />
    <linearGradient
       inkscape:collect="always"
       id="linearGradient4496-6">
      <stop
         style="stop-color:#99ffff;stop-opacity:1"
         offset="0"
         id="stop4492" />
      <stop
         style="stop-color:#ffffff;stop-opacity:1"
         offset="1"
         id="stop4494" />
    </linearGradient>
    <linearGradient
       inkscape:collect="always"
       xlink:href="#linearGradient4496-6"
       id="linearGradient4498"
       x1="74.812126"
       y1="137.32884"
       x2="142.52574"
       y2="25.485594"
       gradientUnits="userSpaceOnUse" />
    <radialGradient
       inkscape:collect="always"
       xlink:href="#linearGradient4496-9"
       id="radialGradient1039"
       cx="98.443901"
       cy="176.75378"
       fx="98.443901"
       fy="176.75378"
       r="18.387352"
       gradientTransform="matrix(1,0,0,0.68923053,0,54.929679)"
       gradientUnits="userSpaceOnUse" />
    <filter
       inkscape:collect="always"
       style="color-interpolation-filters:sRGB"
       id="filter1254"
       x="-2.7904942e-05"
       width="1.0000558"
       y="-9.5599098e-05"
       height="1.0001912">
      <feGaussianBlur
         inkscape:collect="always"
         stdDeviation="0.00018584908"
         id="feGaussianBlur1256" />
    </filter>
  </defs>
  <sodipodi:namedview
     id="base"
     pagecolor="#ffffff"
     bordercolor="#666666"
     borderopacity="1.0"
     inkscape:pageopacity="0.0"
     inkscape:pageshadow="2"
     inkscape:zoom="3.959798"
     inkscape:cx="53.448975"
     inkscape:cy="37.271767"
     inkscape:document-units="mm"
     inkscape:current-layer="layer1"
     inkscape:document-rotation="0"
     showgrid="false"
     inkscape:window-width="1920"
     inkscape:window-height="1017"
     inkscape:window-x="1912"
     inkscape:window-y="-8"
     inkscape:window-maximized="1" />
  <metadata
     id="metadata5">
    <rdf:RDF>
      <cc:Work
         rdf:about="">
        <dc:format>image/svg+xml</dc:format>
        <dc:type
           rdf:resource="http://purl.org/dc/dcmitype/StillImage" />
        <dc:title></dc:title>
      </cc:Work>
    </rdf:RDF>
  </metadata>
  <g
     inkscape:label="Ebene 1"
     inkscape:groupmode="layer"
     id="layer1"
     transform="translate(-90.640717,-143.78089)">
    <g
       id="g979"
       transform="translate(47.144004,-7.1393866)">
      <g
         id="layer2-6"
         inkscape:label="Layer 2"
         transform="matrix(0.04427318,-0.06729631,0.11722663,0.0254159,81.874215,189.74089)"
         style="fill:#000000;fill-opacity:0.756757">
        <rect
           style="opacity:1;fill:#000000;fill-opacity:0.756757;stroke:none;stroke-width:2.6218;stroke-linecap:round;stroke-linejoin:round;stroke-miterlimit:4;stroke-dasharray:none;stroke-opacity:1"
           id="rect4535-6"
           width="68.455116"
           height="126.21413"
           x="69.597321"
           y="33.220005"
           rx="6.6135788"
           ry="7.7026711" />
        <rect
           style="opacity:1;fill:#000000;fill-opacity:0.756757;stroke:none;stroke-width:3.14958;stroke-linecap:round;stroke-linejoin:round;stroke-miterlimit:4;stroke-dasharray:none;stroke-opacity:1"
           id="rect4537-3"
           width="57.996704"
           height="93.8881"
           x="74.812126"
           y="43.440742"
           rx="0"
           ry="0.3657316" />
        <ellipse
           style="opacity:1;fill:#000000;fill-opacity:0.756757;stroke:#f9f9f9;stroke-width:1.0936;stroke-linecap:round;stroke-linejoin:round;stroke-miterlimit:4;stroke-dasharray:none;stroke-opacity:1"
           id="path4539-4"
           cx="103.77864"
           cy="149.44604"
           rx="4.9679518"
           ry="4.8437533" />
      </g>
      <g
         id="layer2"
         inkscape:label="Layer 2"
         transform="matrix(0.04427318,-0.06729631,0.11722663,0.0254159,81.82792,189.32104)">
        <rect
           style="opacity:1;fill:#333333;fill-opacity:1;stroke:none;stroke-width:2.6218;stroke-linecap:round;stroke-linejoin:round;stroke-miterlimit:4;stroke-dasharray:none;stroke-opacity:1"
           id="rect4535"
           width="68.455116"
           height="126.21413"
           x="69.597321"
           y="33.220005"
           rx="6.6135788"
           ry="7.7026711" />
        <rect
           style="opacity:1;fill:url(#linearGradient4498);fill-opacity:1;stroke:none;stroke-width:3.14958;stroke-linecap:round;stroke-linejoin:round;stroke-miterlimit:4;stroke-dasharray:none;stroke-opacity:1"
           id="rect4537"
           width="57.996704"
           height="93.8881"
           x="74.812126"
           y="43.440742"
           rx="0"
           ry="0.3657316" />
        <ellipse
           style="opacity:1;fill:#333333;fill-opacity:1;stroke:#f9f9f9;stroke-width:1.0936;stroke-linecap:round;stroke-linejoin:round;stroke-miterlimit:4;stroke-dasharray:none;stroke-opacity:1"
           id="path4539"
           cx="103.77864"
           cy="149.44604"
           rx="4.9679518"
           ry="4.8437533" />
      </g>
    </g>
    <rect
       style="opacity:0.995;fill:#fffefe;fill-opacity:0.779923;stroke:#000000;stroke-width:0.590172;stroke-linecap:round;stroke-linejoin:round;stroke-miterlimit:4;stroke-dasharray:none;stroke-opacity:1;paint-order:normal"
       id="rect1082"
       width="30.656372"
       height="23.707367"
       x="84.797661"
       y="161.90492"
       ry="1.2839578" />
    <path
       id="path960"
       style="font-style:normal;font-variant:normal;font-weight:normal;font-stretch:normal;font-size:10.5833px;line-height:1.25;font-family:Merienda;-inkscape-font-specification:Merienda;fill:#e1a700;fill-opacity:1;stroke:#e1a700;stroke-width:0;stroke-linecap:round;stroke-linejoin:round;stroke-miterlimit:4;stroke-dasharray:none;stroke-opacity:1;paint-order:normal"
       d="m 105.26489,143.78089 c -0.54703,0 -1.03563,0.13781 -1.46503,0.41341 -0.4235,0.26888 -0.77018,0.63535 -1.04076,1.09915 -0.54703,0.94108 -0.82062,2.05699 -0.82062,3.3476 0,0.93435 0.19418,1.66367 0.58239,2.18798 0.3941,0.52431 0.86716,0.78652 1.42007,0.78652 0.34704,0 0.67972,-0.11097 0.99736,-0.3328 0.31763,-0.22854 0.58199,-0.56146 0.79375,-0.99838 -0.0529,1.37127 -0.22628,2.44021 -0.52039,3.20652 -0.10896,0.28391 -0.25667,0.46 -0.40359,0.63872 l 0.82837,-5.3e-4 c 0.0548,-0.0824 0.11833,-0.15491 0.1664,-0.24495 0.60585,-1.14945 0.90899,-2.74951 0.90899,-4.79971 0,-0.31592 -0.0533,-0.53736 -0.15916,-0.66507 -0.10588,-0.13444 -0.29373,-0.20205 -0.56431,-0.20205 -0.11176,0 -0.22072,0.007 -0.32659,0.0202 l 0.0176,0.25218 0.009,0.25218 c 0,0.65875 -0.14722,1.18626 -0.44132,1.58285 -0.28822,0.38987 -0.62329,0.58498 -1.00562,0.58498 -0.38234,0 -0.70579,-0.19821 -0.97049,-0.5948 -0.25881,-0.3966 -0.38808,-0.94113 -0.38808,-1.63349 0,-0.69908 0.0881,-1.36802 0.26458,-2.0066 0.18234,-0.63859 0.44671,-1.18312 0.79375,-1.63349 0.35292,-0.45037 0.74418,-0.67541 1.17357,-0.67541 0.32351,0 0.57388,0.10065 0.75034,0.3023 0.17646,0.19494 0.26459,0.44373 0.26459,0.74621 0,0.29577 -0.0974,0.55797 -0.29146,0.78652 -0.18823,0.22854 -0.44969,0.34261 -0.78497,0.34261 -0.14116,0 -0.29128,-0.0232 -0.4501,-0.0703 0.24705,0.38987 0.61457,0.58498 1.10278,0.58498 0.33528,0 0.62338,-0.13472 0.86455,-0.40359 0.24704,-0.27561 0.37103,-0.65188 0.37103,-1.12913 0,-0.48398 -0.14431,-0.89433 -0.43253,-1.23042 -0.28234,-0.34282 -0.69682,-0.51418 -1.24385,-0.51418 z" />
    <g
       id="g924"
       transform="matrix(1.519931,0.90041623,-1.1687497,1.1709697,161.35623,-146.13799)">
      <rect
         style="opacity:0.995;fill:#682101;fill-opacity:1;stroke:none;stroke-width:0.189356;stroke-linecap:round;stroke-linejoin:round;stroke-miterlimit:4;stroke-dasharray:none;stroke-opacity:1"
         id="rect853"
         width="0.91152954"
         height="8.8347263"
         x="202.33302"
         y="26.9727"
         transform="rotate(52.388427)"
         ry="0" />
      <rect
         style="opacity:0.995;fill:#c00202;fill-opacity:1;stroke:none;stroke-width:0.189356;stroke-linecap:round;stroke-linejoin:round;stroke-miterlimit:4;stroke-dasharray:none;stroke-opacity:1"
         id="rect855"
         width="0.91153443"
         height="1.282897"
         x="202.33302"
         y="25.689798"
         transform="rotate(52.388427)"
         ry="0.18154402" />
      <rect
         style="opacity:0.995;fill:#d5d8d8;fill-opacity:1;stroke:none;stroke-width:25.9442;stroke-linecap:round;stroke-linejoin:round;stroke-miterlimit:4;stroke-dasharray:none;stroke-opacity:1"
         id="rect857"
         width="0.91153407"
         height="0.20468357"
         x="202.33302"
         y="26.778559"
         transform="rotate(52.388427)" />
      <path
         sodipodi:type="star"
         style="opacity:0.995;fill:#c08b21;fill-opacity:1;stroke:none;stroke-width:0.264999;stroke-linecap:round;stroke-linejoin:round;stroke-miterlimit:4;stroke-dasharray:none;stroke-opacity:1"
         id="path861"
         sodipodi:sides="3"
         sodipodi:cx="121.75558"
         sodipodi:cy="191.68118"
         sodipodi:r1="1.1767845"
         sodipodi:r2="0.58839226"
         sodipodi:arg1="0.69420564"
         sodipodi:arg2="1.7414032"
         inkscape:flatsided="true"
         inkscape:rounded="0"
         inkscape:randomized="0"
         d="m 122.66001,192.43406 -2.00866,-0.34605 1.30402,-1.56653 z"
         inkscape:transform-center-x="0.1716092"
         inkscape:transform-center-y="0.0079898004"
         transform="matrix(-0.2599899,0.56081432,-0.57154157,0.00907778,236.27388,112.73313)" />
      <path
         sodipodi:type="star"
         style="opacity:0.995;fill:#3a342e;fill-opacity:1;stroke:none;stroke-width:0.264999;stroke-linecap:round;stroke-linejoin:round;stroke-miterlimit:4;stroke-dasharray:none;stroke-opacity:1"
         id="path861-6"
         sodipodi:sides="3"
         sodipodi:cx="121.75558"
         sodipodi:cy="191.68118"
         sodipodi:r1="1.1768219"
         sodipodi:r2="0.58839226"
         sodipodi:arg1="0.69415504"
         sodipodi:arg2="1.7413526"
         inkscape:flatsided="true"
         inkscape:rounded="0"
         inkscape:randomized="0"
         d="m 122.66008,192.43404 -2.00874,-0.34597 1.30398,-1.56663 z"
         inkscape:transform-center-x="0.051173637"
         inkscape:transform-center-y="0.0023742047"
         transform="matrix(-0.07752776,0.1672322,-0.17043101,0.00270695,136.70574,162.23587)" />
      <text
         xml:space="preserve"
         style="font-style:normal;font-variant:normal;font-weight:normal;font-stretch:normal;font-size:0.354691px;line-height:1.25;font-family:'Modern No. 20';-inkscape-font-specification:'Modern No. 20, ';fill:#aeaeae;fill-opacity:1;stroke:none;stroke-width:0.0088673"
         x="-29.868612"
         y="203.07576"
         id="text893"
         transform="rotate(-37.611573)"><tspan
           sodipodi:role="line"
           id="tspan891"
           x="-29.868612"
           y="203.07576"
           style="font-style:normal;font-variant:normal;font-weight:normal;font-stretch:normal;font-family:'Modern No. 20';-inkscape-font-specification:'Modern No. 20, ';fill:#aeaeae;fill-opacity:1;stroke-width:0.0088673">Premium ® HB 2 </tspan></text>
    </g>
    <path
       d="m 119.78871,138.29738 h 26.42175 v 19.87472 h -26.42175 z"
       fill="#30579d"
       id="path1092"
       style="fill:#4a4a4a;fill-opacity:1;stroke-width:0.0578671" />
    <path
       d="m 144.80753,138.29738 h 1.40293 v 19.87472 h -1.40293 z"
       fill="#26457d"
       id="path1096"
       style="fill:#5a5a5b;fill-opacity:1;stroke-width:0.0578671" />
    <path
       d="m 129.49226,158.1721 h 7.01465 v 4.09184 h -7.01465 z"
       fill="#26457d"
       id="path1100"
       style="fill:#4a4a4a;fill-opacity:1;stroke-width:0.0578671" />
    <path
       d="m 127.15409,162.26394 h 11.69105 v 2.45513 h -11.69105 z"
       fill="#30579d"
       id="path1104"
       style="fill:#4a4a4a;fill-opacity:1;stroke-width:0.0578671" />
    <path
       d="m 137.32526,162.26394 h 1.51982 v 2.45513 h -1.51982 z"
       fill="#26457d"
       id="path1108"
       style="fill:#5a5a5b;fill-opacity:1;stroke-width:0.0578671" />
    <path
       d="m 144.33985,140.16793 v 16.13363 h -22.68058 v -16.13363 z"
       fill="#90d8f9"
       id="path1112"
       style="fill:#f9f7cd;fill-opacity:1;stroke-width:0.0578671" />
    <path
       d="m 124.81585,135.95914 h 16.36747 v 20.34241 h -16.36747 z"
       fill="#e4f6ff"
       id="path1116"
       style="stroke-width:0.0578671" />
    <circle
       cx="132.99959"
       cy="142.79839"
       fill="#ac80dd"
       r="3.2150354"
       id="circle1120"
       style="fill:#e1a700;fill-opacity:1;stroke-width:0.0578671" />
    <path
       d="m 134.63028,140.02783 c 0.28204,0.47816 0.44448,1.0353 0.44448,1.63064 0,1.77559 -1.43945,3.21503 -3.21504,3.21503 -0.59534,0 -1.15248,-0.16243 -1.63069,-0.44447 0.55917,0.94798 1.59024,1.58434 2.77055,1.58434 1.7756,0 3.21504,-1.43944 3.21504,-3.21504 0,-1.18019 -0.63642,-2.21133 -1.58434,-2.7705 z"
       fill="#9d66d5"
       id="path1124"
       style="fill:#8f6900;fill-opacity:1;stroke-width:0.0578671" />
    <path
       d="m 146.21063,141.86679 c 0.23969,0 0.43401,-0.19432 0.43401,-0.434 v -3.13524 c 0,-0.23968 -0.19432,-0.434 -0.43401,-0.434 h -4.59331 v -1.90441 c 0,-0.23968 -0.19432,-0.434 -0.434,-0.434 h -16.36747 c -0.23968,0 -0.434,0.19432 -0.434,0.434 v 1.90441 h -4.59331 c -0.23969,0 -0.43401,0.19432 -0.43401,0.434 v 19.87444 c 0,0.23968 0.19432,0.434 0.43401,0.434 h 9.26972 v 3.22377 h -1.9044 c -0.23969,0 -0.43401,0.19432 -0.43401,0.43401 v 2.4553 c 0,0.23968 0.19432,0.434 0.43401,0.434 h 11.69145 c 0.23969,0 0.43401,-0.19432 0.43401,-0.434 v -2.4553 c 0,-0.23969 -0.19432,-0.43401 -0.43401,-0.43401 h -1.9044 v -3.22377 h 9.26972 c 0.23969,0 0.43401,-0.19432 0.43401,-0.434 v -14.71386 c 0,-0.23968 -0.19432,-0.434 -0.43401,-0.434 -0.23968,0 -0.434,0.19432 -0.434,0.434 v 14.27986 h -25.55409 v -19.00644 h 4.15931 v 1.00226 h -2.72247 c -0.23969,0 -0.434,0.19432 -0.434,0.434 v 11.34021 c 0,0.23968 0.19431,0.434 0.434,0.434 0.23968,0 0.434,-0.19432 0.434,-0.434 v -10.9062 h 2.28847 v 15.2659 h -2.28847 v -2.33435 c 0,-0.23969 -0.19432,-0.43401 -0.434,-0.43401 -0.23969,0 -0.434,0.19432 -0.434,0.43401 v 2.76836 c 0,0.23968 0.19431,0.434 0.434,0.434 h 22.68041 c 0.23969,0 0.434,-0.19432 0.434,-0.434 v -16.13392 c 0,-0.23968 -0.19431,-0.434 -0.434,-0.434 h -2.72247 v -1.00226 h 4.15931 v 2.70124 c 0,0.23968 0.19432,0.434 0.434,0.434 z m -10.13773,19.96297 h -0.89173 c -0.23968,0 -0.434,0.19432 -0.434,0.43401 0,0.23968 0.19432,0.434 0.434,0.434 h 3.23014 v 1.58729 h -10.82345 v -1.58729 h 5.56797 c 0.23968,0 0.434,-0.19432 0.434,-0.434 0,-0.23969 -0.19432,-0.43401 -0.434,-0.43401 h -3.22956 v -3.22377 h 6.14663 z m 4.67641,-25.43661 v 19.4744 h -15.49945 v -19.4744 z m 3.15648,4.20867 v 15.2659 h -2.28847 v -15.2659 z"
       id="path1130"
       style="stroke-width:0.0578671" />
    <path
       d="m 128.85544,144.68989 -0.0753,-0.13037 c -0.11984,-0.20757 -0.38528,-0.27869 -0.59285,-0.15885 -0.20757,0.11985 -0.27868,0.38528 -0.15884,0.59285 l 0.29223,0.50611 c 0,5e-5 5e-5,5e-5 5e-5,1.1e-4 0,6e-5 6e-5,6e-5 6e-5,1.2e-4 l 0.29223,0.50616 c 0.0804,0.13923 0.22626,0.21706 0.37625,0.21706 0.0736,0 0.14826,-0.0188 0.2166,-0.0582 0.20757,-0.11985 0.27869,-0.38528 0.15884,-0.59285 l -0.0753,-0.13038 0.79075,-0.45651 c 0.20838,0.27747 0.4553,0.52439 0.73277,0.73277 l -0.23511,0.40721 c -0.11984,0.20757 -0.0487,0.47301 0.15884,0.59285 0.0683,0.0395 0.14299,0.0582 0.2166,0.0582 0.14999,0 0.29587,-0.0778 0.37625,-0.21706 l 0.23459,-0.40628 c 0.3137,0.13477 0.65008,0.22609 1.00151,0.26798 v 0.91233 h -0.15057 c -0.23969,0 -0.434,0.19432 -0.434,0.43401 0,0.23968 0.19431,0.434 0.434,0.434 h 1.16909 c 0.23968,0 0.434,-0.19432 0.434,-0.434 0,-0.23969 -0.19432,-0.43401 -0.434,-0.43401 h -0.15057 v -0.91233 c 0.35142,-0.0418 0.68781,-0.13321 1.0015,-0.26798 l 0.2346,0.40628 c 0.0804,0.13923 0.22626,0.21706 0.37625,0.21706 0.0736,0 0.14825,-0.0188 0.21659,-0.0582 0.20757,-0.11984 0.27869,-0.38528 0.15885,-0.59285 l -0.23512,-0.40721 c 0.27748,-0.20838 0.5244,-0.4553 0.73278,-0.73277 l 0.79075,0.45651 -0.0753,0.13038 c -0.11984,0.20757 -0.0487,0.473 0.15885,0.59285 0.0683,0.0395 0.14299,0.0582 0.21659,0.0582 0.15,0 0.29588,-0.0779 0.37626,-0.21706 l 0.29223,-0.50616 c 0,-6e-5 5e-5,-6e-5 5e-5,-1.2e-4 0,-6e-5 6e-5,-6e-5 6e-5,-1.1e-4 l 0.29223,-0.50611 c 0.11984,-0.20757 0.0487,-0.473 -0.15885,-0.59285 -0.20762,-0.1199 -0.473,-0.0487 -0.59284,0.15885 l -0.0753,0.13037 -0.78977,-0.45599 c 0.13477,-0.3137 0.22609,-0.65008 0.26798,-1.00151 h 0.46954 c 0.23968,0 0.434,-0.19431 0.434,-0.434 0,-0.23968 -0.19432,-0.434 -0.434,-0.434 H 136.622 c -0.0418,-0.35143 -0.13321,-0.68781 -0.26798,-1.00151 l 0.78977,-0.45599 0.0753,0.13038 c 0.0804,0.13922 0.22626,0.21706 0.37625,0.21706 0.0736,0 0.14825,-0.0188 0.21659,-0.0582 0.20757,-0.11984 0.27869,-0.38528 0.15885,-0.59285 l -0.58457,-1.0125 c -0.11985,-0.20762 -0.38528,-0.27874 -0.59285,-0.15884 -0.20757,0.11984 -0.27869,0.38528 -0.15885,0.59285 l 0.0753,0.13037 -0.79075,0.45651 c -0.20838,-0.27747 -0.4553,-0.52439 -0.73278,-0.73277 l 0.23512,-0.40721 c 0.11984,-0.20757 0.0487,-0.473 -0.15885,-0.59285 -0.20757,-0.1199 -0.473,-0.0487 -0.59284,0.15885 l -0.2346,0.40628 c -0.31369,-0.13477 -0.65008,-0.22608 -1.0015,-0.26798 v -0.91227 h 0.15057 c 0.23968,0 0.434,-0.19432 0.434,-0.434 0,-0.23969 -0.19432,-0.43401 -0.434,-0.43401 h -1.16909 c -0.23969,0 -0.434,0.19432 -0.434,0.43401 0,0.23968 0.19431,0.434 0.434,0.434 h 0.15057 v 0.91233 c -0.35143,0.0418 -0.68781,0.13321 -1.00151,0.26798 l -0.23459,-0.40628 c -0.1199,-0.20757 -0.38533,-0.27869 -0.59285,-0.15885 -0.20757,0.11985 -0.27868,0.38528 -0.15884,0.59285 l 0.23511,0.40721 c -0.27747,0.20838 -0.52439,0.4553 -0.73277,0.73277 l -0.79075,-0.45651 0.0753,-0.13038 c 0.11985,-0.20757 0.0487,-0.473 -0.15884,-0.59284 -0.20763,-0.11996 -0.47306,-0.0487 -0.59285,0.15884 l -0.58457,1.0125 c -0.11984,0.20757 -0.0487,0.47301 0.15884,0.59285 0.0683,0.0395 0.14299,0.0582 0.2166,0.0582 0.14999,0 0.29587,-0.0779 0.37625,-0.21706 l 0.0753,-0.13037 0.78977,0.45599 c -0.13478,0.3137 -0.22609,0.65008 -0.26799,1.00151 h -0.46953 c -0.23969,0 -0.434,0.19431 -0.434,0.434 0,0.23968 0.19431,0.434 0.434,0.434 h 0.46953 c 0.0418,0.35143 0.13321,0.68781 0.26799,1.00151 z m 4.14414,-4.67253 c 1.53348,0 2.78104,1.24755 2.78104,2.78103 0,1.53348 -1.24756,2.78103 -2.78104,2.78103 -1.53347,0 -2.78103,-1.24755 -2.78103,-2.78103 0,-1.53348 1.24756,-2.78103 2.78103,-2.78103 z"
       id="path1142"
       style="stroke-width:0.0578671" />
    <path
       d="m 92.974097,152.0591 q -0.979365,0 -1.64992,-0.90746 -0.670556,-0.90747 -0.670556,-2.64172 0,-1.28053 0.361747,-2.32916 0.361747,-1.0587 1.129357,-1.72417 0.776433,-0.67555 1.746974,-0.67555 0.970541,0 1.411696,0.54448 0.441155,0.53438 0.441155,1.23011 0,0.69572 -0.308809,1.1192 -0.308808,0.4134 -0.802902,0.4134 -0.158815,0 -0.388216,-0.0807 0.202931,-0.24199 0.352924,-0.67556 0.158815,-0.44364 0.158815,-0.8873 0,-0.44364 -0.211754,-0.75621 -0.202931,-0.32265 -0.652909,-0.32265 -0.679379,0 -1.217588,0.6453 -0.529386,0.63523 -0.802902,1.57294 -0.264693,0.92762 -0.264693,1.91574 0,1.39145 0.467624,2.08717 0.467625,0.68564 1.208765,0.68564 0.494093,0 1.014657,-0.34282 0.520562,-0.34282 0.85584,-0.98812 0.132346,0 0.247047,0.0907 0.1147,0.0907 0.1147,0.18148 -0.494094,1.06879 -1.244057,1.48219 -0.652909,0.36299 -1.296995,0.36299 z"
       style="font-style:normal;font-variant:normal;font-weight:normal;font-stretch:normal;font-size:10.5833px;line-height:1.25;font-family:Merienda;-inkscape-font-specification:Merienda;fill:#e1a700;fill-opacity:1;stroke:#e1a700;stroke-width:0;stroke-linecap:round;stroke-linejoin:round;stroke-miterlimit:4;stroke-dasharray:none;stroke-opacity:1;paint-order:normal"
       id="path880" />
    <path
       d="m 100.01491,148.60067 q 0,-0.98813 -0.220577,-1.41162 -0.211754,-0.43356 -0.617616,-0.43356 -0.39704,0 -0.802902,0.45373 -0.405863,0.44366 -0.644087,1.10912 -0.2294,0.65539 -0.2294,1.37128 0,0.7058 0.238223,1.23012 0.238224,0.51422 0.723495,0.51422 0.688201,0 1.120533,-0.92763 0.432331,-0.92762 0.432331,-1.90566 z m -2.558697,-0.39324 q 0.335277,-1.08895 0.899955,-1.58301 0.573502,-0.50415 1.155826,-0.50415 0.591146,0 0.979366,0.59489 0.38821,0.58481 0.38821,1.5931 0,1.10912 -0.37057,2.05691 -0.41468,1.04863 -1.199937,1.46202 -0.423509,0.23191 -0.935248,0.23191 -0.714671,0 -1.252881,-0.67555 -0.538209,-0.68564 -0.538209,-1.946 0,-1.27045 0.476448,-2.19808 0.476447,-0.92762 1.296995,-1.29061 0.176462,0 0.176462,0.20165 -0.873486,0.6554 -1.076417,2.05692 z"
       style="font-style:normal;font-variant:normal;font-weight:normal;font-stretch:normal;font-size:10.5833px;line-height:1.25;font-family:Merienda;-inkscape-font-specification:Merienda;fill:#e1a700;fill-opacity:1;stroke:#e1a700;stroke-width:0;stroke-linecap:round;stroke-linejoin:round;stroke-miterlimit:4;stroke-dasharray:none;stroke-opacity:1;paint-order:normal"
       id="path882" />
    <path
       id="path884"
       style="font-style:normal;font-variant:normal;font-weight:normal;font-stretch:normal;font-size:10.5833px;line-height:1.25;font-family:Merienda;-inkscape-font-specification:Merienda;fill:#e1a700;fill-opacity:1;stroke:#e1a700;stroke-width:0;stroke-linecap:round;stroke-linejoin:round;stroke-miterlimit:4;stroke-dasharray:none;stroke-opacity:1;paint-order:normal"
       d="m 105.63644,154.12909 -0.82837,5.3e-4 c -0.24961,0.30366 -0.53432,0.51057 -0.89348,0.51057 -0.57056,0 -0.85577,-0.40673 -0.85577,-1.22009 0,-0.38987 0.12638,-0.78318 0.37931,-1.17977 -0.14117,-0.11427 -0.29419,-0.17105 -0.45889,-0.17105 -0.25881,0 -0.47621,0.1244 -0.65267,0.37311 -0.17058,0.25543 -0.2558,0.60125 -0.2558,1.03817 0,0.44366 0.14721,0.84367 0.44132,1.19993 0.2941,0.36298 0.7318,0.54467 1.31413,0.54467 0.42939,0 0.81194,-0.12439 1.14722,-0.3731 0.2637,-0.19225 0.47662,-0.44236 0.663,-0.72295 z" />
    <path
       d="m 111.52021,148.60067 q 0,-0.98813 -0.22058,-1.41162 -0.21175,-0.43356 -0.61762,-0.43356 -0.39704,0 -0.8029,0.45373 -0.40586,0.44366 -0.64409,1.10912 -0.2294,0.65539 -0.2294,1.37128 0,0.7058 0.23823,1.23012 0.23822,0.51422 0.72349,0.51422 0.6882,0 1.12054,-0.92763 0.43233,-0.92762 0.43233,-1.90566 z m -2.5587,-0.39324 q 0.33528,-1.08895 0.89995,-1.58301 0.57351,-0.50415 1.15583,-0.50415 0.59115,0 0.97936,0.59489 0.38822,0.58481 0.38822,1.5931 0,1.10912 -0.37057,2.05691 -0.41469,1.04863 -1.19994,1.46202 -0.42351,0.23191 -0.93525,0.23191 -0.71467,0 -1.25288,-0.67555 -0.53821,-0.68564 -0.53821,-1.946 0,-1.27045 0.47645,-2.19808 0.47645,-0.92762 1.29699,-1.29061 0.17647,0 0.17647,0.20165 -0.87349,0.6554 -1.07642,2.05692 z"
       style="font-style:normal;font-variant:normal;font-weight:normal;font-stretch:normal;font-size:10.5833px;line-height:1.25;font-family:Merienda;-inkscape-font-specification:Merienda;fill:#e1a700;fill-opacity:1;stroke:#e1a700;stroke-width:0;stroke-linecap:round;stroke-linejoin:round;stroke-miterlimit:4;stroke-dasharray:none;stroke-opacity:1;paint-order:normal"
       id="path886" />
    <text
       xml:space="preserve"
       style="font-style:normal;font-variant:normal;font-weight:normal;font-stretch:normal;font-size:7.1899px;line-height:1.25;font-family:'OCR A Extended';-inkscape-font-specification:'OCR A Extended';fill:#000000;fill-opacity:1;stroke:#000000;stroke-width:0.395779;stroke-linecap:round;stroke-linejoin:round;stroke-miterlimit:4;stroke-dasharray:none;stroke-opacity:1;filter:url(#filter1254)"
       x="124.26674"
       y="154.31001"
       id="text1232"
       transform="matrix(0.85516704,0,0,1.0000144,19.191854,0.2340491)"><tspan
         sodipodi:role="line"
         id="tspan1230"
         x="124.26674"
         y="154.31001"
         style="font-style:normal;font-variant:normal;font-weight:normal;font-stretch:normal;font-family:'OCR A Extended';-inkscape-font-specification:'OCR A Extended';stroke:#000000;stroke-width:0.395779;stroke-linecap:round;stroke-linejoin:round;stroke-miterlimit:4;stroke-dasharray:none;stroke-opacity:1">CoGo</tspan></text>
  </g>
</svg>
