<svg xmlns="http://www.w3.org/2000/svg" data-name="Layer 1 copy 2" viewBox="0 0 64 80" x="0px" y="0px"><title>arrow-goal-target</title><path d="M39,25.108h8.336a1,1,0,0,0,1-1V19.835A4.364,4.364,0,0,0,45.2,15.664a3.732,3.732,0,0,0,1.667-3.107V10.734a3.735,3.735,0,0,0-7.469,0v1.823a3.73,3.73,0,0,0,1.692,3.12A4.362,4.362,0,0,0,38,19.835v4.273A1,1,0,0,0,39,25.108Zm7.336-5.273v3.273H44.168V19.116l1-1.312A2.364,2.364,0,0,1,46.336,19.835Zm-4.936-9.1a1.735,1.735,0,0,1,3.469,0v1.823a1.735,1.735,0,1,1-3.469,0Zm-1.4,9.1a2.363,2.363,0,0,1,1.211-2.055l.957,1.323v4H40Z"/><path d="M10,62H54a1,1,0,0,0,1-1V3a1,1,0,0,0-1-1H10A1,1,0,0,0,9,3V61A1,1,0,0,0,10,62ZM11,4H53V60H11Z"/><rect x="15" y="7" width="19" height="2"/><rect x="15" y="12" width="19" height="2"/><rect x="15" y="18" width="19" height="2"/><rect x="15" y="23" width="19" height="2"/><rect x="15" y="30" width="34" height="2"/><rect x="15" y="35" width="34" height="2"/><rect x="15" y="40" width="34" height="2"/><rect x="15" y="45" width="18" height="2"/><rect x="38" y="51" width="3" height="2"/><rect x="46" y="51" width="3" height="2"/><rect x="42" y="51" width="3" height="2"/><rect x="38" y="55" width="11" height="2"/><text x="0" y="79" fill="#000000" font-size="5px" font-weight="bold" font-family="'Helvetica Neue', Helvetica, Arial-Unicode, Arial, Sans-serif">Created by Turkkub</text><text x="0" y="84" fill="#000000" font-size="5px" font-weight="bold" font-family="'Helvetica Neue', Helvetica, Arial-Unicode, Arial, Sans-serif">from the Noun Project</text></svg>